{
    "accessors" : [
        {
            "bufferView" : 0,
            "componentType" : 5125,
            "count" : 6,
            "max" : [
                3
            ],
            "min" : [
                0
            ],
            "type" : "SCALAR"
        },
        {
            "bufferView" : 1,
            "componentType" : 5126,
            "count" : 4,
            "max" : [
                1.0,
                0.0,
                1.0
            ],
            "min" : [
                -1.0,
                0.0,
                -1.0
            ],
            "type" : "VEC3"
        },
        {
            "bufferView" : 2,
            "componentType" : 5126,
            "count" : 4,
            "max" : [
                0.0,
                1.0,
                -0.0
            ],
            "min" : [
                0.0,
                1.0,
                -0.0
            ],
            "type" : "VEC3"
        },
        {
            "bufferView" : 3,
            "componentType" : 5126,
            "count" : 4,
            "max" : [
                -1.1920930376163597e-07,
                0.0,
                -1.0,
                1.0
            ],
            "min" : [
                -1.1920930376163597e-07,
                0.0,
                -1.0,
                1.0
            ],
            "type" : "VEC4"
        },
        {
            "bufferView" : 4,
            "componentType" : 5126,
            "count" : 4,
            "max" : [
                1.0,
                1.0
            ],
            "min" : [
                0.0,
                0.0
            ],
            "type" : "VEC2"
        }
    ],
    "asset" : {
        "generator" : "Khronos Blender glTF 2.0 exporter",
        "version" : "2.0"
    },
    "bufferViews" : [
        {
            "buffer" : 0,
            "byteLength" : 24,
            "byteOffset" : 0,
            "target" : 34963
        },
        {
            "buffer" : 0,
            "byteLength" : 48,
            "byteOffset" : 24,
            "target" : 34962
        },
        {
            "buffer" : 0,
            "byteLength" : 48,
            "byteOffset" : 72,
            "target" : 34962
        },
        {
            "buffer" : 0,
            "byteLength" : 64,
            "byteOffset" : 120,
            "target" : 34962
        },
        {
            "buffer" : 0,
            "byteLength" : 32,
            "byteOffset" : 184,
            "target" : 34962
        }
    ],
    "buffers" : [
        {
            "byteLength" : 216,
            "uri" : "test3.bin"
        }
    ],
    "extensionsRequired" : [
        "KHR_materials_pbrSpecularGlossiness"
    ],
    "extensionsUsed" : [
        "KHR_materials_pbrSpecularGlossiness"
    ],
    "images" : [
        {
            "name" : "Plaster17_GLOSS_3K",
            "uri" : "Plaster17_GLOSS_3K.jpg"
        },
        {
            "name" : "Plaster17_NRM_3K",
            "uri" : "Plaster17_NRM_3K.jpg"
        },
        {
            "name" : "Plaster17_COL_VAR1_3K",
            "uri" : "Plaster17_COL_VAR1_3K.jpg"
        }
    ],
    "materials" : [
        {
            "extensions" : {
                "KHR_materials_pbrSpecularGlossiness" : {
                    "diffuseTexture" : {
                        "index" : 2
                    },
                    "glossinessFactor" : 0.0,
                    "specularFactor" : [
                        0.0,
                        0.0,
                        0.0
                    ]
                }
            },
            "name" : "Material.001",
            "normalTexture" : {
                "index" : 1
            }
        }
    ],
    "meshes" : [
        {
            "name" : "Plane.001",
            "primitives" : [
                {
                    "attributes" : {
                        "NORMAL" : 2,
                        "POSITION" : 1,
                        "TANGENT" : 3,
                        "TEXCOORD_0" : 4
                    },
                    "indices" : 0,
                    "material" : 0
                }
            ]
        }
    ],
    "nodes" : [
        {
            "mesh" : 0,
            "name" : "Plane.001",
            "rotation" : [
                0.7071068286895752,
                0.0,
                -0.0,
                0.7071068286895752
            ],
            "scale" : [
                22.466806411743164,
                12.560044288635254,
                12.560044288635254
            ],
            "translation" : [
                0.03368904069066048,
                -0.5,
                -15.0
            ]
        }
    ],
    "samplers" : [
        {}
    ],
    "scene" : 0,
    "scenes" : [
        {
            "name" : "Scene",
            "nodes" : [
                0
            ]
        }
    ],
    "textures" : [
        {
            "sampler" : 0,
            "source" : 0
        },
        {
            "sampler" : 0,
            "source" : 1
        },
        {
            "sampler" : 0,
            "source" : 2
        }
    ]
}
