{
    "accessors" : [{
        "bufferView" : 0,
        "componentType" : 5125,
        "count" : 228768,
        "max" : [48356],
        "min" : [0],
        "type" : "SCALAR"
    },{
        "bufferView" : 1,
        "componentType" : 5126,
        "count" : 48357,
        "max" : [3.94974,0.41,3.94974],
        "min" : [-3.94974,-0.41,-3.94974],
        "type" : "VEC3"
    },{
        "bufferView" : 2,
        "componentType" : 5126,
        "count" : 48357,
        "max" : [1,1,0.999969],
        "min" : [-0.999969,-1,-1],
        "type" : "VEC3"
    },{
        "bufferView" : 3,
        "componentType" : 5126,
        "count" : 48357,
        "max" : [0.999999,1,1,1],
        "min" : [-1,-1,-1,1],
        "type" : "VEC4"
    },{
        "bufferView" : 4,
        "componentType" : 5126,
        "count" : 48357,
        "max" : [1,1],
        "min" : [0,0],
        "type" : "VEC2"
    }],
    "asset" : {
        "generator" : "Khronos Blender glTF 2.0 exporter",
        "version" : "2.0"
    },
    "bufferViews" : [{
        "buffer" : 0,
        "byteLength" : 915072,
        "byteOffset" : 0,
        "target" : 34963
    },{
        "buffer" : 0,
        "byteLength" : 580284,
        "byteOffset" : 915072,
        "target" : 34962
    },{
        "buffer" : 0,
        "byteLength" : 580284,
        "byteOffset" : 1495356,
        "target" : 34962
    },{
        "buffer" : 0,
        "byteLength" : 773712,
        "byteOffset" : 2075640,
        "target" : 34962
    },{
        "buffer" : 0,
        "byteLength" : 386856,
        "byteOffset" : 2849352,
        "target" : 34962
    }],
    "buffers" : [{
        "byteLength" : 3236208,
        "uri" : "test2.bin"
    }],
    "images" : [{
        "name" : "MetalCastIron001_METALNESS_4K_METALNESS",
        "uri" : "MetalCastIron001_METALNESS_4K_METALNESS.jpg"
    },{
        "name" : "MetalCastIron001_COL_4K_METALNESS",
        "uri" : "MetalCastIron001_COL_4K_METALNESS.jpg"
    },{
        "name" : "MetalCastIron001_NRM_4K_METALNESS",
        "uri" : "MetalCastIron001_NRM_4K_METALNESS.jpg"
    }],
    "materials" : [{
        "name" : "Material_MR",
        "normalTexture" : {
            "index" : 2
        },
        "pbrMetallicRoughness" : {
            "baseColorTexture" : {
                "index" : 1
            },
            "metallicFactor" : 0.6,
            "metallicRoughnessTexture" : {
                "index" : 0
            },
            "roughnessFactor" : 0.2
        }
    }],
    "meshes" : [{
        "name" : "CUNurbsCircle",
        "primitives" : [{
            "attributes" : {
                "NORMAL" : 2,
                "POSITION" : 1,
                "TANGENT" : 3,
                "TEXCOORD_0" : 4
            },
            "indices" : 0,
            "material" : 0
        }]
    }],
    "nodes" : [{
        "mesh" : 0,
        "name" : "logo",
        "rotation" : [0.707107,0,-0,0.707107],
        "scale" : [0.65203,0.244511,0.65203],
        "translation" : [0,-0.5,-0]
    }],
    "samplers" : [{}],
    "scene" : 0,
    "scenes" : [{
        "name" : "Scene",
        "nodes" : [0]
    }],
    "textures" : [{
        "sampler" : 0,
        "source" : 0
    },{
        "sampler" : 0,
        "source" : 1
    },{
        "sampler" : 0,
        "source" : 2
    }]
}
